<svg xmlns="http://www.w3.org/2000/svg" width="1600" height="900" viewBox="0 0 1600 900">
  <defs>
    <linearGradient id="g1" x1="0" y1="0" x2="1" y2="1">
      <stop offset="0" stop-color="#00e5ff" stop-opacity="0.65"/>
      <stop offset="1" stop-color="#a855f7" stop-opacity="0.55"/>
    </linearGradient>
    <linearGradient id="g2" x1="1" y1="0" x2="0" y2="1">
      <stop offset="0" stop-color="#a855f7" stop-opacity="0.55"/>
      <stop offset="1" stop-color="#00e5ff" stop-opacity="0.45"/>
    </linearGradient>
    <filter id="soft" x="-20%" y="-20%" width="140%" height="140%">
      <feGaussianBlur stdDeviation="0.4"/>
    </filter>
  </defs>

  <g stroke="url(#g1)" stroke-width="2" fill="none" opacity="0.55" filter="url(#soft)">
    <path d="M80 140 H520 Q560 140 560 180 V260 Q560 300 600 300 H980" />
    <path d="M1200 140 H980 Q940 140 940 180 V340 Q940 380 900 380 H640" />
    <path d="M140 520 H460 Q520 520 520 460 V380 Q520 340 560 340 H820" />
    <path d="M1160 540 H920 Q860 540 860 600 V720 Q860 760 820 760 H520" />
    <path d="M1360 380 H1180 Q1120 380 1120 440 V520 Q1120 560 1080 560 H960" />
  </g>

  <g fill="#ffffff" stroke="url(#g2)" stroke-width="2" opacity="0.75">
    <circle cx="80" cy="140" r="6"/><circle cx="520" cy="140" r="6"/><circle cx="560" cy="260" r="6"/><circle cx="980" cy="300" r="6"/>
    <circle cx="1200" cy="140" r="6"/><circle cx="940" cy="340" r="6"/><circle cx="640" cy="380" r="6"/>
    <circle cx="140" cy="520" r="6"/><circle cx="520" cy="380" r="6"/><circle cx="820" cy="340" r="6"/>
    <circle cx="1160" cy="540" r="6"/><circle cx="860" cy="720" r="6"/><circle cx="520" cy="760" r="6"/>
    <circle cx="1360" cy="380" r="6"/><circle cx="1120" cy="520" r="6"/><circle cx="960" cy="560" r="6"/>
  </g>

  <g fill="none" stroke="url(#g1)" stroke-width="2.2" opacity="0.22">
    <path d="M1050 250
             C1180 220 1290 280 1310 390
             C1330 500 1250 590 1140 615
             C1120 680 1040 720 970 700
             C900 730 820 700 800 630
             C710 600 660 520 675 435
             C620 360 650 280 720 250
             C760 180 850 165 920 195
             C970 160 1030 170 1050 250 Z"/>
    <path d="M880 310 H1030 V360 H1100 V440 H980 V510 H840 V430 H760 V350 H880 Z" opacity="0.18"/>
  </g>
</svg>
